<svg class="img-fluid" id="outputsvg" xmlns="http://www.w3.org/2000/svg" style="transform: matrix(0.6591, 0, 0, 0.6591, 19.0645, 49.1507); transform-origin: 50% 50%; cursor: move; transition: transform 200ms ease-in-out 0s;" width="300" height="300" viewBox="0 0 3000 3000"><g id="l41Sqp3h7IPnWSrhvsyYwk1" fill="rgb(0,0,0)" style="transform: none;"><g><path id="p13kX3l4vL" d="M1331 2989 c-41 -5 -122 -20 -180 -34 -853 -206 -1351 -1104 -1069 -1930 150 -440 503 -793 943 -943 553 -189 1160 -35 1568 398 191 203 315 445 378 740 30 139 33 396 6 540 -85 453 -369 843 -774 1062 -258 139 -579 201 -872 167z"></path></g></g><g id="l6JY2J3pObE8JNi5F8kKXpl" fill="rgb(39,41,150)" style="transform: none;"><g><path id="pN08aXLz9" d="M1140 2308 c-17 -28 -20 -51 -20 -156 0 -122 0 -123 -22 -120 -21 3 -23 7 -20 55 4 50 3 52 -25 60 -54 15 -166 6 -238 -19 l-70 -24 -5 -54 c-4 -42 -9 -56 -22 -58 -10 -2 -18 2 -18 10 -1 58 -23 205 -35 235 -26 63 -73 82 -99 41 -43 -67 -57 -215 -72 -760 l-6 -256 31 -16 c40 -21 40 -38 -1 -34 -43 4 -46 -25 -4 -32 35 -6 32 -25 -4 -25 -18 0 -25 -5 -25 -20 0 -20 8 -22 49 -14 36 7 26 -18 -14 -34 l-40 -15 0 -111 c0 -104 1 -111 22 -122 l22 -12 -24 -9 c-18 -7 -21 -11 -12 -20 9 -9 20 -10 43 -1 23 9 29 9 26 0 -2 -7 -18 -16 -35 -22 -24 -7 -32 -15 -32 -32 0 -20 5 -23 35 -23 30 0 39 5 56 35 22 37 39 45 39 20 0 -29 -54 -78 -88 -79 -31 -1 -32 -2 -32 -49 0 -26 7 -64 16 -85 l16 -37 49 55 c28 30 67 81 87 113 30 47 41 56 57 51 68 -20 68 -20 63 23 -6 39 5 73 21 73 5 0 11 -27 13 -60 2 -33 6 -61 9 -64 2 -2 17 -6 33 -8 l29 -3 1 70 c1 55 4 70 16 70 11 0 14 -9 12 -35 -2 -19 0 -50 3 -67 6 -31 8 -33 51 -33 38 0 45 3 41 18 -3 9 -8 38 -12 65 -5 37 -3 47 8 47 16 0 27 -21 27 -50 0 -10 4 -30 9 -44 l10 -25 50 17 c28 8 52 14 53 11 119 -184 164 -239 195 -239 12 0 63 145 63 180 0 15 -6 18 -32 14 -25 -4 -40 1 -63 20 -38 31 -28 43 16 17 22 -12 44 -18 62 -14 30 6 37 23 9 23 -10 0 -27 7 -38 15 -18 14 -16 15 22 9 46 -7 43 -11 60 91 13 83 46 200 70 246 27 53 74 90 140 109 l42 12 7 80 c7 88 12 108 27 108 5 0 8 -37 7 -87 l-2 -88 54 3 c29 2 54 4 56 5 1 1 5 36 10 77 4 41 13 75 18 75 6 0 11 -35 13 -78 l3 -78 57 3 57 3 3 73 c2 53 6 72 17 72 20 0 27 -33 20 -89 l-6 -48 68 -6 c37 -3 72 -3 77 0 4 3 6 41 4 85 -5 76 2 102 19 76 4 -7 10 -46 13 -87 l5 -74 47 -12 c93 -23 127 -67 148 -193 9 -57 19 -82 42 -107 58 -67 144 -71 197 -9 33 37 39 69 18 98 -13 18 -15 18 -39 2 -20 -13 -50 -14 -59 -2 -2 2 -14 163 -33 411 -8 116 -20 325 -25 465 -10 256 -23 346 -57 398 -16 25 -31 27 -56 8 -30 -22 -47 -78 -59 -196 -13 -117 -23 -137 -57 -107 -27 23 -151 83 -212 101 -176 54 -444 61 -727 20 l-43 -6 0 -69 c0 -66 -11 -92 -31 -72 -5 5 -14 68 -19 139 -5 72 -13 142 -19 155 -25 66 -79 79 -111 27z m280 -1082 c0 -14 -84 -46 -122 -46 -34 0 -39 30 -5 31 12 0 42 8 67 18 47 19 60 19 60 -3z m-55 -86 c39 0 46 -3 43 -17 -2 -14 -15 -19 -55 -21 -56 -3 -93 10 -93 33 0 18 21 25 42 14 9 -5 38 -9 63 -9z m-30 -67 c53 -11 56 -38 3 -37 -48 2 -98 22 -98 41 0 11 7 14 28 10 15 -4 45 -10 67 -14z m-51 -339 c5 -17 20 -31 49 -44 31 -14 37 -20 25 -25 -9 -4 -30 1 -47 9 -44 23 -73 86 -40 86 4 0 10 -12 13 -26z"></path></g></g><g id="l3rSLHefbcszl16fE2oNweK" fill="rgb(179,28,47)" style="transform: none;"><g><path id="pza9wWLAH" d="M1140 2308 c-17 -28 -20 -51 -20 -156 0 -122 0 -123 -22 -120 -21 3 -23 7 -20 55 4 50 3 52 -25 60 -54 15 -166 6 -238 -19 l-70 -24 -5 -54 c-4 -42 -9 -56 -22 -58 -10 -2 -18 2 -18 10 -1 58 -23 205 -35 235 -26 63 -73 82 -99 41 -43 -67 -57 -215 -72 -760 l-6 -256 31 -16 c40 -21 40 -38 -1 -34 -43 4 -46 -25 -4 -32 35 -6 32 -25 -4 -25 -18 0 -25 -5 -25 -20 0 -20 8 -22 49 -14 36 7 26 -18 -14 -34 l-40 -15 0 -111 c0 -104 1 -111 22 -122 l22 -12 -24 -9 c-18 -7 -21 -11 -12 -20 9 -9 20 -10 43 -1 23 9 29 9 26 0 -2 -7 -18 -16 -35 -22 -24 -7 -32 -15 -32 -32 0 -20 5 -23 35 -23 30 0 39 5 56 35 22 37 39 45 39 20 0 -29 -54 -78 -88 -79 -31 -1 -32 -2 -32 -49 0 -26 7 -64 16 -85 l16 -37 49 55 c28 30 67 81 87 113 30 47 41 56 57 51 68 -20 68 -20 63 23 -6 39 5 73 21 73 5 0 11 -27 13 -60 2 -33 6 -61 9 -64 2 -2 17 -6 33 -8 l29 -3 1 70 c1 55 4 70 16 70 11 0 14 -9 12 -35 -2 -19 0 -50 3 -67 6 -31 8 -33 51 -33 38 0 45 3 41 18 -3 9 -8 38 -12 65 -5 37 -3 47 8 47 16 0 27 -21 27 -50 0 -10 4 -30 9 -44 l10 -25 50 17 c28 8 52 14 53 11 119 -184 164 -239 195 -239 12 0 63 145 63 180 0 15 -6 18 -32 14 -25 -4 -40 1 -63 20 -38 31 -28 43 16 17 22 -12 44 -18 62 -14 30 6 37 23 9 23 -10 0 -27 7 -38 15 -18 14 -16 15 22 9 46 -7 43 -11 60 91 13 83 46 200 70 246 27 53 74 90 140 109 l42 12 7 80 c7 88 12 108 27 108 5 0 8 -37 7 -87 l-2 -88 54 3 c29 2 54 4 56 5 1 1 5 36 10 77 4 41 13 75 18 75 6 0 11 -35 13 -78 l3 -78 57 3 57 3 3 73 c2 53 6 72 17 72 20 0 27 -33 20 -89 l-6 -48 68 -6 c37 -3 72 -3 77 0 4 3 6 41 4 85 -5 76 2 102 19 76 4 -7 10 -46 13 -87 l5 -74 47 -12 c93 -23 127 -67 148 -193 9 -57 19 -82 42 -107 58 -67 144 -71 197 -9 33 37 39 69 18 98 -13 18 -15 18 -39 2 -20 -13 -50 -14 -59 -2 -2 2 -14 163 -33 411 -8 116 -20 325 -25 465 -10 256 -23 346 -57 398 -16 25 -31 27 -56 8 -30 -22 -47 -78 -59 -196 -13 -117 -23 -137 -57 -107 -27 23 -151 83 -212 101 -176 54 -444 61 -727 20 l-43 -6 0 -69 c0 -66 -11 -92 -31 -72 -5 5 -14 68 -19 139 -5 72 -13 142 -19 155 -25 66 -79 79 -111 27z m280 -1082 c0 -14 -84 -46 -122 -46 -34 0 -39 30 -5 31 12 0 42 8 67 18 47 19 60 19 60 -3z m-55 -86 c39 0 46 -3 43 -17 -2 -14 -15 -19 -55 -21 -56 -3 -93 10 -93 33 0 18 21 25 42 14 9 -5 38 -9 63 -9z m-30 -67 c53 -11 56 -38 3 -37 -48 2 -98 22 -98 41 0 11 7 14 28 10 15 -4 45 -10 67 -14z m-183 -70 c29 -26 21 -33 -29 -26 -56 7 -57 7 -50 28 8 20 56 19 79 -2z m132 -269 c5 -17 20 -31 49 -44 31 -14 37 -20 25 -25 -9 -4 -30 1 -47 9 -44 23 -73 86 -40 86 4 0 10 -12 13 -26z"></path></g></g><g id="lyLYfOKHAweRjkPZPJcwT4" fill="rgb(97,87,114)" style="transform: none;"><g><path id="p7D7WnPPo" d="M1140 2308 c-17 -28 -20 -51 -20 -156 0 -122 0 -123 -22 -120 -21 3 -23 7 -20 55 4 50 3 52 -25 60 -54 15 -166 6 -238 -19 l-70 -24 -5 -54 c-4 -42 -9 -56 -22 -58 -10 -2 -18 2 -18 10 -1 58 -23 205 -35 235 -26 63 -73 82 -99 41 -43 -67 -57 -215 -72 -760 l-6 -256 31 -16 c40 -21 40 -38 -1 -34 -43 4 -46 -25 -4 -32 35 -6 32 -25 -4 -25 -18 0 -25 -5 -25 -20 0 -20 8 -22 49 -14 36 7 26 -18 -14 -34 l-40 -15 0 -111 c0 -104 1 -111 22 -122 l22 -12 -24 -9 c-18 -7 -21 -11 -12 -20 9 -9 20 -10 43 -1 23 9 29 9 26 0 -2 -7 -18 -16 -35 -22 -24 -7 -32 -15 -32 -32 0 -20 5 -23 35 -23 30 0 39 5 56 35 22 37 39 45 39 20 0 -29 -54 -78 -88 -79 -31 -1 -32 -2 -32 -49 0 -26 7 -64 16 -85 l16 -37 49 55 c28 30 67 81 87 113 30 47 41 56 57 51 68 -20 68 -20 63 23 -6 39 5 73 21 73 5 0 11 -27 13 -60 2 -33 6 -61 9 -64 2 -2 17 -6 33 -8 l29 -3 1 70 c1 55 4 70 16 70 11 0 14 -9 12 -35 -2 -19 0 -50 3 -67 6 -31 8 -33 51 -33 38 0 45 3 41 18 -3 9 -8 38 -12 65 -5 37 -3 47 8 47 16 0 27 -21 27 -50 0 -10 4 -30 9 -44 l10 -25 50 17 c28 8 52 14 53 11 119 -184 164 -239 195 -239 12 0 63 145 63 180 0 15 -6 18 -32 14 -25 -4 -40 1 -63 20 -38 31 -28 43 16 17 22 -12 44 -18 62 -14 30 6 37 23 9 23 -10 0 -27 7 -38 15 -18 14 -16 15 22 9 46 -7 43 -11 60 91 13 83 46 200 70 246 27 53 74 90 140 109 l42 12 7 80 c7 88 12 108 27 108 5 0 8 -37 7 -87 l-2 -88 54 3 c29 2 54 4 56 5 1 1 5 36 10 77 4 41 13 75 18 75 6 0 11 -35 13 -78 l3 -78 57 3 57 3 3 73 c2 53 6 72 17 72 20 0 27 -33 20 -89 l-6 -48 68 -6 c37 -3 72 -3 77 0 4 3 6 41 4 85 -5 76 2 102 19 76 4 -7 10 -46 13 -87 l5 -74 47 -12 c93 -23 127 -67 148 -193 9 -57 19 -82 42 -107 58 -67 144 -71 197 -9 33 37 39 69 18 98 -13 18 -15 18 -39 2 -20 -13 -50 -14 -59 -2 -2 2 -14 163 -33 411 -8 116 -20 325 -25 465 -10 256 -23 346 -57 398 -16 25 -31 27 -56 8 -30 -22 -47 -78 -59 -196 -13 -117 -23 -137 -57 -107 -27 23 -151 83 -212 101 -176 54 -444 61 -727 20 l-43 -6 0 -69 c0 -66 -11 -92 -31 -72 -5 5 -14 68 -19 139 -5 72 -13 142 -19 155 -25 66 -79 79 -111 27z m280 -1082 c0 -14 -84 -46 -122 -46 -34 0 -39 30 -5 31 12 0 42 8 67 18 47 19 60 19 60 -3z m-55 -86 c39 0 46 -3 43 -17 -2 -14 -15 -19 -55 -21 -56 -3 -93 10 -93 33 0 18 21 25 42 14 9 -5 38 -9 63 -9z m-30 -67 c53 -11 56 -38 3 -37 -48 2 -98 22 -98 41 0 11 7 14 28 10 15 -4 45 -10 67 -14z m-589 -50 c17 -17 17 -18 -9 -21 -15 -2 -37 -2 -49 0 -21 3 -21 4 -4 21 10 9 24 17 31 17 7 0 21 -8 31 -17z m406 -20 c29 -26 21 -33 -29 -26 -56 7 -57 7 -50 28 8 20 56 19 79 -2z m132 -269 c5 -17 20 -31 49 -44 31 -14 37 -20 25 -25 -9 -4 -30 1 -47 9 -44 23 -73 86 -40 86 4 0 10 -12 13 -26z"></path><path id="p19BBK0nQU" d="M1996 2238 c-28 -43 -24 -50 34 -64 83 -20 82 -20 62 34 -15 41 -21 47 -49 50 -24 2 -35 -2 -47 -20z"></path></g></g><g id="l7M4yETfKvuR3r9zAdP3dnM" fill="rgb(81,188,66)" style="transform: none;"><g><path id="pJkI9Yhj8" d="M962 1234 c-12 -8 -29 -29 -38 -46 l-16 -30 -23 35 c-13 19 -31 37 -39 40 -25 10 -30 -13 -8 -36 33 -37 55 -88 43 -100 -16 -16 -14 -25 8 -37 30 -16 54 -2 46 27 -9 36 12 89 46 117 47 39 31 65 -19 30z"></path></g></g></svg>
